<svg xmlns="http://www.w3.org/2000/svg" width="55" height="54" viewBox="0 0 55 54"><g><g><path d="M55 15.057v6.913c0 1.606-1.316 2.913-2.934 2.913h-1.344v26.205c0 1.606-1.316 2.912-2.934 2.912H7.212c-1.618 0-2.934-1.306-2.934-2.912V24.883H2.934C1.316 24.883 0 23.576 0 21.97v-6.913c0-1.606 1.316-2.913 2.934-2.913h7.63a7.458 7.458 0 0 1-2.008-5.092s.001-.3.004-.385c.082-2.423 1.413-4.583 3.56-5.78a7.106 7.106 0 0 1 6.979.002l3.47 1.944a12.054 12.054 0 0 1 4.931 5.21 12.054 12.054 0 0 1 4.932-5.21l3.47-1.944A7.105 7.105 0 0 1 42.88.888c2.147 1.196 3.478 3.356 3.56 5.779.003.085.004.385.004.385a7.458 7.458 0 0 1-2.008 5.092h7.63c1.618 0 2.934 1.307 2.934 2.913zm-26.208-2.913H38.87c2.828 0 5.13-2.284 5.13-5.092 0 0-.001-.245-.003-.303-.053-1.568-.918-2.968-2.314-3.746a4.665 4.665 0 0 0-4.58-.001l-3.47 1.943a9.602 9.602 0 0 0-4.84 7.2zM11 7.052c0 2.808 2.301 5.092 5.13 5.092h10.078a9.601 9.601 0 0 0-4.841-7.199l-3.47-1.943a4.664 4.664 0 0 0-4.58.001c-1.396.778-2.26 2.178-2.314 3.746-.002.058-.003.303-.003.303zm11 21.522v-3.691H6.722v26.205c0 .268.22.486.49.486H22V31h-5.032a1.218 1.218 0 0 1-1.222-1.213c0-.67.547-1.213 1.222-1.213zm0-14.003H2.934c-.27 0-.49.218-.49.486v6.913c0 .269.22.486.49.486H22zm8.555 0h-6.11v37.003h6.11zm17.723 36.517V24.883H33v3.69h4.657c.675 0 1.222.544 1.222 1.214 0 .67-.547 1.213-1.222 1.213H33v20.574h14.788c.27 0 .49-.218.49-.486zm4.278-29.118v-6.913a.488.488 0 0 0-.49-.486H33v7.885h19.066c.27 0 .49-.217.49-.486zM42.24 29.787c0-.67.548-1.214 1.223-1.214h.122c.675 0 1.222.544 1.222 1.214 0 .67-.547 1.213-1.222 1.213h-.122a1.218 1.218 0 0 1-1.223-1.213zm-32.422 0c0-.67.548-1.214 1.223-1.214h.122c.675 0 1.222.544 1.222 1.214 0 .67-.547 1.213-1.222 1.213h-.122a1.218 1.218 0 0 1-1.223-1.213z"/><path fill="#f50049" d="M55 15.057v6.913c0 1.606-1.316 2.913-2.934 2.913h-1.344v26.205c0 1.606-1.316 2.912-2.934 2.912H7.212c-1.618 0-2.934-1.306-2.934-2.912V24.883H2.934C1.316 24.883 0 23.576 0 21.97v-6.913c0-1.606 1.316-2.913 2.934-2.913h7.63a7.458 7.458 0 0 1-2.008-5.092s.001-.3.004-.385c.082-2.423 1.413-4.583 3.56-5.78a7.106 7.106 0 0 1 6.979.002l3.47 1.944a12.054 12.054 0 0 1 4.931 5.21 12.054 12.054 0 0 1 4.932-5.21l3.47-1.944A7.105 7.105 0 0 1 42.88.888c2.147 1.196 3.478 3.356 3.56 5.779.003.085.004.385.004.385a7.458 7.458 0 0 1-2.008 5.092h7.63c1.618 0 2.934 1.307 2.934 2.913zm-26.208-2.913H38.87c2.828 0 5.13-2.284 5.13-5.092 0 0-.001-.245-.003-.303-.053-1.568-.918-2.968-2.314-3.746a4.665 4.665 0 0 0-4.58-.001l-3.47 1.943a9.602 9.602 0 0 0-4.84 7.2zM11 7.052c0 2.808 2.301 5.092 5.13 5.092h10.078a9.601 9.601 0 0 0-4.841-7.199l-3.47-1.943a4.664 4.664 0 0 0-4.58.001c-1.396.778-2.26 2.178-2.314 3.746-.002.058-.003.303-.003.303zm11 21.522v-3.691H6.722v26.205c0 .268.22.486.49.486H22V31h-5.032a1.218 1.218 0 0 1-1.222-1.213c0-.67.547-1.213 1.222-1.213zm0-14.003H2.934c-.27 0-.49.218-.49.486v6.913c0 .269.22.486.49.486H22zm8.555 0h-6.11v37.003h6.11zm17.723 36.517V24.883H33v3.69h4.657c.675 0 1.222.544 1.222 1.214 0 .67-.547 1.213-1.222 1.213H33v20.574h14.788c.27 0 .49-.218.49-.486zm4.278-29.118v-6.913a.488.488 0 0 0-.49-.486H33v7.885h19.066c.27 0 .49-.217.49-.486zM42.24 29.787c0-.67.548-1.214 1.223-1.214h.122c.675 0 1.222.544 1.222 1.214 0 .67-.547 1.213-1.222 1.213h-.122a1.218 1.218 0 0 1-1.223-1.213zm-32.422 0c0-.67.548-1.214 1.223-1.214h.122c.675 0 1.222.544 1.222 1.214 0 .67-.547 1.213-1.222 1.213h-.122a1.218 1.218 0 0 1-1.223-1.213z"/></g></g></svg>