<svg xmlns="http://www.w3.org/2000/svg" width="33" height="32" viewBox="0 0 33 32"><g><g><path d="M33 8.936v4.094c0 .951-.79 1.725-1.76 1.725h-.807v15.52c0 .951-.79 1.725-1.76 1.725H4.327c-.97 0-1.76-.774-1.76-1.725v-15.52H1.76C.79 14.755 0 13.981 0 13.03V8.936C0 7.985.79 7.21 1.76 7.21h4.578a4.387 4.387 0 0 1-1.205-3.016s.001-.178.003-.228c.05-1.435.848-2.714 2.136-3.423a4.312 4.312 0 0 1 4.187 0l2.082 1.152A7.179 7.179 0 0 1 16.5 4.78a7.178 7.178 0 0 1 2.959-3.085L21.541.545a4.31 4.31 0 0 1 4.187 0c1.288.708 2.087 1.987 2.136 3.422.002.05.003.228.003.228a4.386 4.386 0 0 1-1.205 3.016h4.577c.971 0 1.761.774 1.761 1.725zM17.275 7.21h6.047c1.697 0 3.078-1.353 3.078-3.016 0 0 0-.145-.002-.18-.032-.928-.55-1.757-1.388-2.218a2.83 2.83 0 0 0-2.748 0l-2.082 1.15a5.686 5.686 0 0 0-2.905 4.264zM6.6 4.195c0 1.663 1.38 3.016 3.078 3.016h6.047a5.686 5.686 0 0 0-2.905-4.264l-2.082-1.15a2.829 2.829 0 0 0-2.748 0c-.837.46-1.356 1.29-1.388 2.218l-.002.18zm6.6 12.746v-2.186H4.033v15.52c0 .159.132.288.294.288H13.2V18.378h-3.02a.726.726 0 0 1-.732-.718c0-.397.328-.719.733-.719zm0-8.293H1.76a.291.291 0 0 0-.293.288v4.094c0 .159.131.288.294.288H13.2zm5.133 0h-3.666v21.915h3.666zm10.634 21.627v-15.52H19.8v2.186h2.794c.405 0 .734.322.734.719a.726.726 0 0 1-.734.718H19.8v12.185h8.873a.291.291 0 0 0 .294-.288zm2.566-17.245V8.936a.291.291 0 0 0-.294-.288H19.8v4.67h11.44a.291.291 0 0 0 .294-.288zm-6.189 4.63c0-.397.329-.72.734-.72h.073c.405 0 .733.323.733.72a.726.726 0 0 1-.733.718h-.073a.726.726 0 0 1-.734-.718zm-19.453 0c0-.397.328-.72.733-.72h.074c.405 0 .733.323.733.72a.726.726 0 0 1-.733.718h-.074a.726.726 0 0 1-.733-.718z"/><path fill="#f50049" d="M33 8.936v4.094c0 .951-.79 1.725-1.76 1.725h-.807v15.52c0 .951-.79 1.725-1.76 1.725H4.327c-.97 0-1.76-.774-1.76-1.725v-15.52H1.76C.79 14.755 0 13.981 0 13.03V8.936C0 7.985.79 7.21 1.76 7.21h4.578a4.387 4.387 0 0 1-1.205-3.016s.001-.178.003-.228c.05-1.435.848-2.714 2.136-3.423a4.312 4.312 0 0 1 4.187 0l2.082 1.152A7.179 7.179 0 0 1 16.5 4.78a7.178 7.178 0 0 1 2.959-3.085L21.541.545a4.31 4.31 0 0 1 4.187 0c1.288.708 2.087 1.987 2.136 3.422.002.05.003.228.003.228a4.386 4.386 0 0 1-1.205 3.016h4.577c.971 0 1.761.774 1.761 1.725zM17.275 7.21h6.047c1.697 0 3.078-1.353 3.078-3.016 0 0 0-.145-.002-.18-.032-.928-.55-1.757-1.388-2.218a2.83 2.83 0 0 0-2.748 0l-2.082 1.15a5.686 5.686 0 0 0-2.905 4.264zM6.6 4.195c0 1.663 1.38 3.016 3.078 3.016h6.047a5.686 5.686 0 0 0-2.905-4.264l-2.082-1.15a2.829 2.829 0 0 0-2.748 0c-.837.46-1.356 1.29-1.388 2.218l-.002.18zm6.6 12.746v-2.186H4.033v15.52c0 .159.132.288.294.288H13.2V18.378h-3.02a.726.726 0 0 1-.732-.718c0-.397.328-.719.733-.719zm0-8.293H1.76a.291.291 0 0 0-.293.288v4.094c0 .159.131.288.294.288H13.2zm5.133 0h-3.666v21.915h3.666zm10.634 21.627v-15.52H19.8v2.186h2.794c.405 0 .734.322.734.719a.726.726 0 0 1-.734.718H19.8v12.185h8.873a.291.291 0 0 0 .294-.288zm2.566-17.245V8.936a.291.291 0 0 0-.294-.288H19.8v4.67h11.44a.291.291 0 0 0 .294-.288zm-6.189 4.63c0-.397.329-.72.734-.72h.073c.405 0 .733.323.733.72a.726.726 0 0 1-.733.718h-.073a.726.726 0 0 1-.734-.718zm-19.453 0c0-.397.328-.72.733-.72h.074c.405 0 .733.323.733.72a.726.726 0 0 1-.733.718h-.074a.726.726 0 0 1-.733-.718z"/></g></g></svg>